<svg width="40" height="40" viewBox="0 0 40 40" fill="none" xmlns="http://www.w3.org/2000/svg">
<path d="M25.2478 5C28.035 5 30.7086 6.10728 32.6794 8.07812C34.6501 10.0489 35.7575 12.7218 35.7576 15.5088C35.7113 16.8711 35.4718 18.2202 35.0476 19.5156L35.3757 19.8311L36.1775 20.6455C36.5385 21.0044 36.8248 21.4313 37.0203 21.9014C37.2158 22.3714 37.3171 22.8757 37.3171 23.3848C37.3171 23.8936 37.2157 24.3973 37.0203 24.8672C36.8248 25.3372 36.5385 25.7642 36.1775 26.123C35.7798 26.5452 35.2834 26.8625 34.7332 27.0459C34.1831 27.2292 33.5964 27.2729 33.0251 27.1738C32.8791 27.8357 32.546 28.4422 32.0662 28.9209C31.4616 29.5186 30.6661 29.8861 29.8191 29.959C29.7504 30.7979 29.3936 31.5874 28.8083 32.1924C28.2092 32.7959 27.4098 33.16 26.5613 33.2168C26.5006 34.0735 26.1266 34.8782 25.5105 35.4766C25.1749 35.814 24.7761 36.0819 24.3367 36.2646C23.8971 36.4475 23.4251 36.542 22.949 36.542C22.473 36.542 22.0018 36.4474 21.5623 36.2646C21.1226 36.0818 20.7232 35.8142 20.3875 35.4766L19.3103 34.4121C18.6178 34.9789 17.7391 35.2677 16.8455 35.2217C15.9518 35.1755 15.1068 34.7981 14.4763 34.1631C13.8768 33.5612 13.5134 32.7633 13.4519 31.916C12.6034 31.8592 11.804 31.4951 11.2048 30.8916C10.6073 30.2871 10.2406 29.4924 10.1677 28.6455C9.32356 28.582 8.52778 28.2237 7.92065 27.6338C7.48084 27.182 7.16458 26.6265 7.00171 26.0186C6.84758 26.0317 6.69413 26.0317 6.54175 26.0186C5.82814 26.0151 5.13138 25.8009 4.53882 25.4033C3.94615 25.0055 3.48325 24.4415 3.20972 23.7822C2.93624 23.1231 2.86386 22.3977 3.00073 21.6973C3.13771 20.9967 3.4785 20.3515 3.98022 19.8438L5.5437 18.333V15.5752C5.5437 12.788 6.65098 10.1144 8.62183 8.14355C10.5926 6.17289 13.2654 5.06545 16.0525 5.06543H17.0642C17.6657 5.1311 18.2611 5.2364 18.8503 5.38086C19.3324 5.13127 19.8687 5 20.4138 5H25.2478ZM15.8289 7.62695C13.7776 7.68519 11.8302 8.54189 10.4001 10.0137C8.97005 11.4855 8.16992 13.4566 8.17065 15.5088V16.8232C9.015 16.7326 9.86416 16.9476 10.5632 17.4297C11.2622 17.9118 11.7649 18.6288 11.9802 19.4502C12.5338 19.3802 13.0962 19.4394 13.6228 19.624C14.1493 19.8086 14.6258 20.1134 15.0144 20.5137C15.6121 21.1182 15.9796 21.9137 16.0525 22.7607C16.8914 22.8294 17.6809 23.1862 18.2859 23.7715C18.8854 24.3734 19.2488 25.1712 19.3103 26.0186C20.1814 26.0782 21 26.4566 21.6091 27.082C21.947 27.4188 22.2152 27.8192 22.3982 28.2598C22.5812 28.7005 22.6755 29.1732 22.6755 29.6504C22.6755 30.1276 22.5812 30.6003 22.3982 31.041C22.2152 31.4816 21.9471 31.882 21.6091 32.2188L21.241 32.5732L22.2927 33.624C22.4808 33.8103 22.735 33.9143 22.9998 33.9131C23.2646 33.9119 23.5184 33.8053 23.7048 33.6172C23.891 33.4291 23.9951 33.1748 23.9939 32.9102C23.9927 32.6453 23.8861 32.3915 23.698 32.2051C23.4534 31.959 23.3162 31.6263 23.3162 31.2793C23.3162 30.9323 23.4534 30.5996 23.698 30.3535C23.9441 30.1089 24.2768 29.9718 24.6238 29.9717C24.9708 29.9717 25.3044 30.1088 25.5505 30.3535C25.6432 30.447 25.7533 30.5215 25.8748 30.5723C25.9965 30.623 26.1276 30.6494 26.2595 30.6494C26.3914 30.6494 26.5225 30.623 26.6443 30.5723C26.7658 30.5216 26.8758 30.447 26.9685 30.3535C27.0618 30.2618 27.1366 30.1519 27.1873 30.0312C27.2378 29.9107 27.2634 29.7811 27.2634 29.6504C27.2634 29.5196 27.2378 29.3901 27.1873 29.2695C27.1366 29.1489 27.0618 29.039 26.9685 28.9473C26.8411 28.8262 26.739 28.6806 26.6687 28.5195C26.5984 28.3583 26.5613 28.1846 26.5593 28.0088C26.5573 27.8328 26.5903 27.6579 26.657 27.4951C26.7237 27.3323 26.8232 27.1845 26.948 27.0605C27.0728 26.9367 27.2214 26.8389 27.3845 26.7734C27.5477 26.708 27.7224 26.6765 27.8982 26.6797C28.0741 26.6829 28.2482 26.7205 28.4089 26.792C28.5696 26.8635 28.7145 26.9673 28.8347 27.0957C29.0261 27.2537 29.2694 27.3349 29.5173 27.3232C29.7655 27.3115 30.0008 27.2079 30.1765 27.0322C30.3522 26.8565 30.4558 26.6212 30.4675 26.373C30.4792 26.1249 30.3983 25.8809 30.24 25.6895L27.613 23.0625C27.3657 22.8151 27.2263 22.4797 27.2263 22.1299C27.2263 21.7801 27.3657 21.4446 27.613 21.1973C27.8604 20.95 28.1959 20.8105 28.5457 20.8105C28.8953 20.8106 29.231 20.95 29.4783 21.1973L32.1052 23.8242V23.8896C32.4753 24.2399 32.9267 24.4934 33.4187 24.626L33.3923 24.5732C33.5547 24.6195 33.7271 24.6195 33.8894 24.5732C34.0519 24.5268 34.1987 24.4357 34.3123 24.3105C34.53 24.0692 34.6501 23.7557 34.6501 23.4307C34.6501 23.1055 34.5301 22.7912 34.3123 22.5498L31.199 19.4502L26.0232 14.1953H21.1228L18.9167 15.916C18.0337 16.5832 16.9233 16.8764 15.8259 16.7324C14.7285 16.5884 13.7316 16.0189 13.0505 15.1465C12.3695 14.274 12.0587 13.1689 12.1853 12.0693C12.3119 10.9699 12.8658 9.9643 13.7273 9.26953L15.8289 7.62695ZM18.9949 28.6846C18.7282 28.6891 18.4739 28.7981 18.2859 28.9873L16.3416 30.9316C16.248 31.0243 16.1735 31.1344 16.1228 31.2559C16.072 31.3776 16.0457 31.5087 16.0457 31.6406C16.0457 31.7724 16.0721 31.9028 16.1228 32.0244C16.1735 32.1461 16.2479 32.2568 16.3416 32.3496V32.2979C16.5232 32.4871 16.7718 32.5986 17.0339 32.6084C17.2961 32.6181 17.5516 32.5249 17.7468 32.3496L19.7048 30.3926C19.8868 30.204 19.9881 29.9515 19.988 29.6895C19.9888 29.5584 19.9642 29.4281 19.9148 29.3066C19.8653 29.1852 19.7921 29.0747 19.7 28.9814C19.6077 28.8881 19.4976 28.8136 19.3767 28.7627C19.2559 28.7119 19.1259 28.6853 18.9949 28.6846ZM15.7244 25.4141C15.593 25.4124 15.4623 25.4368 15.3406 25.4863C15.2187 25.536 15.1074 25.61 15.0144 25.7031L13.0574 27.6602V27.6074C12.8782 27.7974 12.7801 28.0504 12.7839 28.3115C12.7879 28.5724 12.8934 28.8213 13.0779 29.0059C13.2625 29.1905 13.5121 29.296 13.7732 29.2998C14.0342 29.3035 14.2865 29.2055 14.4763 29.0264L16.4207 27.1221C16.5143 27.0293 16.5886 26.9186 16.6394 26.7969C16.6902 26.6751 16.7166 26.544 16.7166 26.4121C16.7165 26.2804 16.6901 26.1499 16.6394 26.0283C16.5887 25.9067 16.5143 25.7959 16.4207 25.7031C16.3303 25.6105 16.2218 25.537 16.1023 25.4873C15.9827 25.4377 15.8538 25.4127 15.7244 25.4141ZM12.4353 22.084C12.1705 22.0852 11.9166 22.1918 11.7302 22.3799L9.78687 24.3369C9.69116 24.4258 9.61426 24.5335 9.56226 24.6533C9.5103 24.7731 9.48369 24.9026 9.48413 25.0332C9.48138 25.1657 9.50744 25.2974 9.5603 25.4189C9.62546 25.5688 9.72603 25.7012 9.85327 25.8037C9.9806 25.9063 10.1314 25.976 10.2917 26.0078C10.452 26.0395 10.6175 26.0325 10.7742 25.9863C10.931 25.94 11.0747 25.856 11.1921 25.7422L13.1492 23.7852C13.3356 23.597 13.4395 23.342 13.4382 23.0771C13.4369 22.8126 13.3311 22.5593 13.1433 22.373C12.9552 22.1867 12.7001 22.0828 12.4353 22.084ZM8.49878 19.4502C8.36735 19.4486 8.23672 19.4729 8.11499 19.5225C7.99319 19.5721 7.88273 19.6462 7.78979 19.7393L5.83276 21.6963C5.64982 21.887 5.54772 22.141 5.54761 22.4053C5.54761 22.6697 5.64972 22.9244 5.83276 23.1152C6.02645 23.2923 6.27931 23.3906 6.54175 23.3906C6.80418 23.3906 7.05704 23.2923 7.25073 23.1152L9.19507 21.1582C9.28869 21.0655 9.36304 20.9546 9.41382 20.833C9.4646 20.7113 9.49097 20.5802 9.49097 20.4482C9.49095 20.3164 9.46454 20.1861 9.41382 20.0645C9.36304 19.9427 9.2888 19.8321 9.19507 19.7393C9.10457 19.6466 8.99636 19.5731 8.87671 19.5234C8.75706 19.4738 8.62832 19.4488 8.49878 19.4502ZM20.4138 7.62695C20.1965 7.61011 19.9804 7.67643 19.8093 7.81152L15.2771 11.3584C14.9775 11.6278 14.7915 12.001 14.7566 12.4023C14.7216 12.8039 14.8408 13.2043 15.0896 13.5215C15.3384 13.8385 15.6983 14.0496 16.0964 14.1113C16.4947 14.1731 16.902 14.0804 17.2351 13.8535L19.8621 11.8438C20.0949 11.6631 20.3818 11.5663 20.6765 11.5684H26.5613C26.7342 11.5674 26.9061 11.6006 27.0662 11.666C27.226 11.7314 27.3713 11.8276 27.4939 11.9492L32.8933 17.3613C33.0269 16.7522 33.1059 16.132 33.1296 15.5088C33.1296 13.4185 32.2991 11.4136 30.821 9.93555C29.3429 8.45759 27.3381 7.62695 25.2478 7.62695H20.4138Z" fill="white"/>
</svg>
