<svg width="40" height="40" viewBox="0 0 40 40" fill="none" xmlns="http://www.w3.org/2000/svg">
<path d="M20 28.3711C20.3918 28.3711 20.7679 28.5267 21.0449 28.8037C21.3219 29.0807 21.4775 29.4569 21.4775 29.8486V34.2803H27.8789C28.2707 34.2803 28.6468 34.4359 28.9238 34.7129C29.2008 34.9899 29.3564 35.3661 29.3564 35.7578C29.3564 36.1493 29.2005 36.5248 28.9238 36.8018C28.6468 37.0788 28.2707 37.2343 27.8789 37.2344H12.1211C11.7293 37.2343 11.3532 37.0788 11.0762 36.8018C10.7995 36.5248 10.6436 36.1493 10.6436 35.7578C10.6436 35.3661 10.7992 34.9899 11.0762 34.7129C11.3532 34.4359 11.7293 34.2803 12.1211 34.2803H18.5225V29.8486C18.5225 29.4569 18.6781 29.0807 18.9551 28.8037C19.2321 28.5267 19.6082 28.3711 20 28.3711ZM26.5059 2.76562C26.8604 2.76562 27.1657 2.76535 27.4414 2.79883C28.4296 2.92191 29.3472 3.37442 30.0469 4.08301C30.7464 4.79151 31.1872 5.7146 31.2979 6.7041H32.8857C33.3033 6.70016 34.2192 6.69301 34.9756 7.19922C35.9544 7.85117 36.25 8.97162 36.25 10.1514C36.25 15.5206 33.388 19.1053 29.7344 21.0967C27.6957 24.8076 23.9295 27.3867 20 27.3867C17.008 27.3867 14.1695 25.7669 12.127 23.5273C11.4485 22.7871 10.8527 21.9751 10.3506 21.1055C6.69877 19.124 3.75 15.5424 3.75 10.1514C3.75002 8.96964 4.04561 7.85117 5.02246 7.19922C5.78079 6.69301 6.69668 6.70016 7.11426 6.7041H8.70215L8.70801 6.64941C8.82979 5.67056 9.27419 4.75999 9.97168 4.0625C10.6692 3.36503 11.5798 2.92061 12.5586 2.79883C12.8343 2.76535 13.1396 2.76562 13.4941 2.76562H26.5059ZM26.4287 5.71973H13.5732C13.0946 5.71973 12.9918 5.7216 12.9229 5.73145C12.597 5.77225 12.2937 5.92016 12.0615 6.15234C11.8293 6.38453 11.6814 6.68786 11.6406 7.01367C11.6277 7.23008 11.6239 7.44733 11.6289 7.66406V8.1875L11.6094 15.0762V15.0781C11.6095 16.4981 12.0147 17.9499 12.7178 19.2793L12.7461 19.3281C13.1696 20.1199 13.699 20.8645 14.3115 21.5342C15.97 23.3542 18.0697 24.4316 20.002 24.4316C22.8029 24.4316 25.7556 22.407 27.29 19.4209C27.987 18.0786 28.3516 16.5886 28.3535 15.0762L28.3496 15.0723L28.373 7.66406C28.373 7.1874 28.3692 7.08261 28.3613 7.01367C28.3205 6.68786 28.1726 6.38453 27.9404 6.15234C27.7082 5.92016 27.4049 5.77225 27.0791 5.73145C26.8627 5.71856 26.6454 5.71472 26.4287 5.71973ZM20 10.6719C20.0815 10.6719 20.1614 10.6954 20.2295 10.7402C20.2976 10.7853 20.3518 10.8496 20.3838 10.9248L21.2246 12.9453C21.2539 13.0157 21.3027 13.0762 21.3643 13.1211C21.426 13.1661 21.4991 13.1938 21.5752 13.2002L23.7568 13.375C23.8387 13.3815 23.9169 13.4121 23.9814 13.4629C24.0461 13.5138 24.0946 13.5829 24.1201 13.6611C24.1456 13.7394 24.1472 13.8241 24.125 13.9033C24.1028 13.9824 24.0574 14.053 23.9951 14.1064L22.333 15.5303C22.2752 15.5802 22.2325 15.6451 22.209 15.7178C22.1855 15.7907 22.1823 15.8689 22.2002 15.9434L22.707 18.0703C22.7265 18.1505 22.7218 18.2351 22.6934 18.3125C22.6649 18.3899 22.6136 18.4573 22.5469 18.5059C22.4801 18.5544 22.3999 18.5818 22.3174 18.585C22.235 18.588 22.1532 18.5667 22.083 18.5234L20.2168 17.3838C20.1515 17.3441 20.0764 17.3223 20 17.3223C19.9236 17.3223 19.8485 17.344 19.7832 17.3838L17.917 18.5234C17.8468 18.5667 17.765 18.588 17.6826 18.585C17.6002 18.5818 17.5199 18.5544 17.4531 18.5059C17.3864 18.4573 17.3351 18.3899 17.3066 18.3125C17.2782 18.2351 17.2735 18.1505 17.293 18.0703L17.8018 15.9434C17.8197 15.8689 17.8165 15.7907 17.793 15.7178C17.7694 15.6449 17.726 15.5802 17.668 15.5303L16.0049 14.1064C15.9419 14.053 15.8966 13.9818 15.874 13.9023C15.8515 13.8229 15.8524 13.7387 15.8779 13.6602C15.9035 13.5815 15.9526 13.512 16.0176 13.4609C16.0825 13.4101 16.1609 13.3792 16.2432 13.373L18.4229 13.2002C18.4992 13.1942 18.5728 13.167 18.6348 13.1221C18.6968 13.0771 18.7459 13.016 18.7754 12.9453L19.6162 10.9248C19.6482 10.8496 19.7024 10.7853 19.7705 10.7402C19.8386 10.6954 19.9185 10.6719 20 10.6719ZM7.19727 9.65918C6.98272 9.65918 6.84655 9.65912 6.74219 9.66895C6.71451 9.82821 6.70132 9.98974 6.7041 10.1514C6.7041 12.5879 7.46918 14.5245 8.69434 16.0254C8.66463 15.7099 8.64956 15.393 8.65039 15.0762V15.0723L8.66797 9.65918H7.19727ZM31.4893 15.8506C32.6106 14.3782 33.2979 12.4965 33.2979 10.1514C33.2978 9.91902 33.2775 9.76544 33.2598 9.66895C33.184 9.66438 33.1081 9.66082 33.0322 9.65918H31.3223L31.4893 15.8506Z" fill="white"/>
</svg>
