<svg width="40" height="40" viewBox="0 0 40 40" fill="none" xmlns="http://www.w3.org/2000/svg">
<path d="M20 2.08331C21.5617 2.08331 23.0552 2.59494 25.4619 3.41827L26.6729 3.83527C29.1412 4.6786 31.0488 5.33174 32.4121 5.88507C33.0986 6.16335 33.6901 6.43532 34.165 6.71027C34.6233 6.97692 35.0819 7.30828 35.3936 7.75323C35.7019 8.19155 35.8619 8.7316 35.9619 9.25323C36.0669 9.79323 36.1283 10.4418 36.1699 11.1868C36.2499 12.6635 36.25 14.6902 36.25 17.3167V19.9847C36.25 30.153 28.5696 35.0281 24.0029 37.0247L23.958 37.0433C23.3916 37.2915 22.8585 37.5234 22.2471 37.68C21.6021 37.8467 20.915 37.9163 20 37.9163C19.0833 37.9163 18.3996 37.8467 17.7529 37.68C17.1415 37.5234 16.6084 37.2915 16.042 37.0433L15.9971 37.0247C11.4305 35.0281 3.7502 30.1534 3.75 19.9837V17.3167C3.75 14.69 3.75008 12.6632 3.83008 11.1849C3.87174 10.4416 3.93309 9.79292 4.03809 9.25128C4.13809 8.73138 4.29886 8.1912 4.60547 7.75128C4.91876 7.30823 5.37684 6.97682 5.83496 6.71027C6.30987 6.43532 6.9014 6.16335 7.58789 5.88507C8.95122 5.33174 10.8588 4.6786 13.3271 3.83527L14.5381 3.41827C16.9448 2.59494 18.4383 2.08331 20 2.08331ZM6.25 19.2347V19.9847C6.25 28.6113 12.6997 32.857 16.998 34.7337C17.6162 35.0036 17.9748 35.1565 18.373 35.2581C18.4875 35.2881 18.6134 35.314 18.75 35.3362V15.0687L6.25 19.2347ZM21.25 35.3362C21.3866 35.314 21.5125 35.2881 21.627 35.2581C22.0252 35.1565 22.3838 35.0036 23.002 34.7337C27.3003 32.857 33.75 28.6113 33.75 19.9847V19.2347L21.25 15.0687V35.3362ZM18.75 4.7298C17.9201 4.90978 16.8586 5.26683 15.1338 5.85675L14.1797 6.18292C11.6584 7.04614 9.82023 7.67623 8.53027 8.19952C8.03552 8.39097 7.55398 8.61643 7.08984 8.87335C6.96962 8.94324 6.85373 9.02045 6.74316 9.1048C6.7101 9.12967 6.67926 9.15823 6.65137 9.18878C6.6296 9.22785 6.61216 9.2692 6.59863 9.31183C6.56531 9.40294 6.52982 9.54053 6.49316 9.72491C6.40102 10.2527 6.34598 10.7862 6.32715 11.3216C6.25882 12.5882 6.25 14.3048 6.25 16.598L18.75 12.4319V4.7298ZM21.25 12.4319L33.75 16.598C33.75 14.3048 33.7412 12.5865 33.6729 11.3216C33.654 10.7862 33.599 10.2527 33.5068 9.72491C33.4807 9.58507 33.4451 9.44719 33.4014 9.31183C33.3878 9.2692 33.3704 9.22785 33.3486 9.18878C33.3207 9.15823 33.2899 9.12967 33.2568 9.1048C33.1463 9.01985 33.0305 8.94185 32.9102 8.8714C32.4459 8.61561 31.9644 8.39184 31.4697 8.20148C30.1798 7.67652 28.3417 7.04643 25.8203 6.18488L24.8652 5.85675C23.1419 5.26675 22.08 4.9098 21.25 4.7298V12.4319Z" fill="white"/>
</svg>
