<svg width="40" height="40" viewBox="0 0 40 40" fill="none" xmlns="http://www.w3.org/2000/svg">
<path d="M7.91699 15C7.91699 14.6686 7.7851 14.3506 7.55078 14.1162C7.31644 13.8819 6.9984 13.7501 6.66699 13.75C6.33555 13.75 6.01761 13.8819 5.7832 14.1162C5.54878 14.3506 5.41699 14.6685 5.41699 15C5.41699 15.3315 5.54878 15.6494 5.7832 15.8838C6.01761 16.1181 6.33555 16.25 6.66699 16.25H6.68164C6.85877 16.2479 7.03372 16.2085 7.19434 16.1338C7.35492 16.0591 7.49758 15.9505 7.61328 15.8164C7.8103 15.5902 7.91859 15.3 7.91699 15ZM9.25586 29.917C9.39155 30.5917 9.54593 31.1592 9.72461 31.6182C9.93957 32.1664 10.1602 32.4829 10.3535 32.6562C10.8818 33.1279 11.5854 33.4247 12.832 33.583C14.112 33.748 15.7901 33.75 18.1865 33.75H21.8135C24.2099 33.75 25.888 33.748 27.168 33.583C28.4146 33.423 29.1182 33.1279 29.6465 32.6562C29.8398 32.4846 30.0604 32.1664 30.2754 31.6182C30.453 31.1595 30.6071 30.5919 30.7441 29.917H9.25586ZM34.583 15C34.583 14.6685 34.4512 14.3506 34.2168 14.1162C33.9824 13.8819 33.6645 13.75 33.333 13.75C33.0016 13.7501 32.6836 13.8819 32.4492 14.1162C32.2149 14.3506 32.083 14.6686 32.083 15C32.0814 15.3 32.1897 15.5902 32.3867 15.8164C32.5024 15.9505 32.6451 16.0591 32.8057 16.1338C32.9663 16.2085 33.1412 16.2479 33.3184 16.25H33.333C33.6645 16.25 33.9824 16.1181 34.2168 15.8838C34.4512 15.6494 34.583 15.3315 34.583 15ZM10.417 15C10.417 15.4639 10.3306 15.9085 10.1758 16.3193C10.6521 16.7457 11.1804 17.2741 11.7646 17.8564L10 19.6279C9.37309 19.0038 8.91466 18.5524 8.56543 18.2324C8.46216 18.2931 8.35612 18.3497 8.24707 18.4004C8.1442 18.4482 8.03899 18.4901 7.93262 18.5283C7.93605 18.57 7.93888 18.6117 7.94336 18.6533C7.99338 19.2743 8.05391 19.8947 8.125 20.5137L8.42969 23.3555C8.63118 25.24 8.78947 26.9443 9.00098 28.417H30.999C31.209 26.945 31.3675 25.2404 31.5703 23.3555C31.6129 23.0322 31.7799 22.7378 32.0361 22.5361C32.2925 22.3345 32.6181 22.2407 32.9424 22.2754C33.2668 22.3102 33.5646 22.4711 33.7725 22.7227C33.9802 22.9742 34.0816 23.2969 34.0547 23.6221C33.808 25.9169 33.6116 28.167 33.2783 29.9902C33.11 30.9101 32.8968 31.7767 32.6035 32.5283C32.3119 33.2749 31.9083 33.9862 31.3135 34.5195C30.2635 35.4595 28.998 35.8701 27.4863 36.0635C26.0097 36.2518 24.1432 36.25 21.8135 36.25H18.1865C15.8568 36.25 13.9903 36.2518 12.5137 36.0635C11.0037 35.8701 9.73652 35.4595 8.68652 34.5195C8.09169 33.9862 7.6881 33.2749 7.39648 32.5283C7.10319 31.7767 6.89 30.9101 6.72168 29.9902C6.38837 28.167 6.19196 25.9186 5.94531 23.6221L5.63965 20.7803C5.55799 20.0303 5.48853 19.3767 5.4502 18.8301C5.44113 18.7332 5.43506 18.6361 5.42969 18.5391C4.90239 18.3547 4.41714 18.0539 4.01465 17.6514C3.31159 16.9481 2.91699 15.9944 2.91699 15C2.91699 14.0056 3.31159 13.0519 4.01465 12.3486C4.71791 11.6454 5.67243 11.25 6.66699 11.25C7.66144 11.2501 8.61517 11.6454 9.31836 12.3486C10.0215 13.0519 10.417 14.0055 10.417 15ZM22.083 8.33301C22.0828 7.18316 21.1499 6.25 20 6.25C18.8501 6.25 17.9172 7.18316 17.917 8.33301C17.9167 8.71758 18.0228 9.09489 18.2236 9.42285C18.4245 9.75074 18.712 10.0169 19.0547 10.1914C19.3364 10.3331 19.6567 10.417 20 10.417C20.3433 10.417 20.662 10.3347 20.9453 10.1914L21.0693 10.1221C21.6788 9.75619 22.083 9.0908 22.083 8.33301ZM24.583 8.33301C24.5832 9.17839 24.3498 10.0077 23.9082 10.7285C23.7001 11.0681 23.4476 11.3761 23.1621 11.6484C23.2733 11.8461 23.3895 12.0524 23.5088 12.2666L26.4912 17.6152C26.6816 17.9761 26.8887 18.328 27.1113 18.6699C27.1572 18.7352 27.1908 18.7745 27.2109 18.7969H27.2119C27.2369 18.7813 27.2819 18.7545 27.3467 18.7021C27.5483 18.5405 27.8054 18.2864 28.2354 17.8564C28.8196 17.2742 29.347 16.7455 29.8232 16.3193C29.6685 15.9085 29.583 15.4638 29.583 15C29.583 14.0055 29.9785 13.0519 30.6816 12.3486C31.3848 11.6454 32.3386 11.2501 33.333 11.25C34.3276 11.25 35.2821 11.6454 35.9854 12.3486C36.6884 13.0519 37.083 14.0056 37.083 15C37.083 15.9944 36.6884 16.9481 35.9854 17.6514C35.2821 18.3546 34.3276 18.75 33.333 18.75H33.29C32.6123 18.7419 31.9788 18.5527 31.4336 18.2314C31.0841 18.5514 30.6261 19.0036 30 19.6279C29.6067 20.0179 29.2449 20.3812 28.9199 20.6445C28.585 20.9145 28.1536 21.197 27.5938 21.2754C27.1104 21.3421 26.6163 21.2738 26.168 21.0771C25.6497 20.8488 25.3147 20.4581 25.0664 20.1064C24.8249 19.7649 24.5784 19.3151 24.3086 18.832L21.3252 13.4854C21.1889 13.2422 21.0634 13.0197 20.9482 12.8154C20.6374 12.8812 20.3199 12.9173 20 12.917C19.6746 12.917 19.3569 12.8804 19.0498 12.8154C18.9349 13.0191 18.8101 13.2415 18.6748 13.4854L15.6914 18.832C15.4216 19.3151 15.1735 19.7632 14.9336 20.1064C14.6869 20.4598 14.3467 20.8488 13.8301 21.0771C13.3834 21.2754 12.8895 21.3421 12.4062 21.2754C11.8465 21.197 11.415 20.9168 11.0801 20.6436C10.7552 20.382 10.3935 20.0185 10.002 19.627L11.7646 17.8564C12.0476 18.1516 12.3444 18.4343 12.6533 18.7021C12.7159 18.7528 12.7598 18.7799 12.7852 18.7959C12.8049 18.7739 12.8403 18.7363 12.8867 18.6699C13.11 18.328 13.3178 17.9762 13.5088 17.6152L16.4912 12.2666C16.6106 12.0521 16.7265 11.8453 16.8379 11.6475C16.5525 11.3752 16.3009 11.067 16.0928 10.7275C15.6511 10.007 15.4171 9.17819 15.417 8.33301C15.4171 7.1177 15.8995 5.95221 16.7588 5.09277C17.6183 4.23323 18.7844 3.75 20 3.75C21.2156 3.75 22.3817 4.23323 23.2412 5.09277C24.1005 5.95221 24.5829 7.1177 24.583 8.33301Z" fill="white"/>
</svg>
