<svg width="180" height="39" viewBox="0 0 180 39" fill="none" xmlns="http://www.w3.org/2000/svg">
<g clip-path="url(#clip0_108_1522)">
<path d="M26.9316 20.325H20.0932L23.0876 25.92C22.7812 26.28 22.2937 26.475 21.3884 26.475H4.98187L1.5 33H22.5165C24.6196 33 26.4441 32.4 27.5861 31.425C27.8229 31.2 28.0318 30.975 28.199 30.75L30.9148 27.81L26.9176 20.325H26.9316ZM32.6279 7.49999H11.6392C9.53615 7.49999 7.69772 8.08499 6.54174 9.07499C6.30498 9.28499 6.09606 9.50999 5.92893 9.74999L3.21308 12.69L7.29383 20.325H14.1322L11.0542 14.565C11.1657 14.43 11.3049 14.325 11.486 14.235H29.0207L32.6279 7.48499V7.49999ZM52.4049 7.49999H35.0373L31.4301 14.25H52.8506L49.9537 19.68C49.7169 20.13 49.1459 20.325 48.1709 20.325H36.2351L29.4664 33H37.1822L40.469 26.85H49.2851C52.0706 26.85 54.3965 25.815 55.2461 24.21L60.5664 14.25L58.3658 10.14C57.5163 8.53499 55.1904 7.49999 52.4049 7.49999ZM85.6497 7.49999H71.1513C68.3658 7.49999 66.0399 8.53499 65.1903 10.14L56.4717 26.475L58.5469 30.36C59.3965 31.965 61.7084 33 64.4939 33H79.0063L85.7751 20.325H78.8114L75.5245 26.475H64.2015L70.4967 14.67C70.5942 14.49 70.7334 14.355 70.9423 14.25H82.0425L85.6497 7.49999Z" fill="#6DB3AE"/>
<path d="M101.569 20.265H96.1235C93.6166 20.265 91.7921 21.255 90.7057 23.25L90.1486 24.27C89.2433 25.905 89.6054 26.865 91.2489 27.165L95.5803 27.9C96.0678 27.99 96.1653 28.275 95.9007 28.755L95.1207 30.165C94.8143 30.705 94.3269 30.975 93.6444 30.975H86.43L85.7754 32.16L86.6807 33.015H92.6416C95.1486 33.015 96.9731 32.01 98.0594 30.015L98.7279 28.785C99.6193 27.165 99.2572 26.205 97.6137 25.905L93.2823 25.17C92.7948 25.08 92.6973 24.795 92.962 24.315L93.6305 23.1C93.9369 22.56 94.4243 22.29 95.1068 22.29H101.834L102.488 21.105L101.583 20.25M176.081 20.265H170.635C168.129 20.265 166.304 21.255 165.218 23.25L164.661 24.27C163.755 25.905 164.117 26.865 165.761 27.165L170.092 27.9C170.58 27.99 170.677 28.275 170.413 28.755L169.633 30.165C169.326 30.705 168.839 30.975 168.156 30.975H160.942L160.287 32.16L161.193 33.015H167.154C169.661 33.015 171.485 32.01 172.571 30.015L173.24 28.785C174.131 27.165 173.769 26.205 172.126 25.905L167.794 25.17C167.307 25.08 167.209 24.795 167.474 24.315L168.142 23.1C168.449 22.56 168.936 22.29 169.619 22.29H176.346L177 21.105L176.095 20.25M105.998 26.655L108.394 22.29H113.212C113.895 22.29 114.09 22.56 113.797 23.1L112.293 25.845C112.001 26.385 111.499 26.655 110.817 26.655H105.984M114.424 20.265H106.667L99.6611 33H102.516L104.884 28.68H109.814C112.335 28.68 114.146 27.675 115.232 25.695L116.569 23.25C117.655 21.255 116.945 20.265 114.424 20.265ZM119.271 30.975C118.588 30.975 118.394 30.705 118.686 30.165L122.53 23.1C122.822 22.56 123.31 22.29 124.006 22.29H129.201C129.884 22.29 130.079 22.56 129.786 23.1L125.956 30.165C125.664 30.705 125.176 30.975 124.48 30.975H119.271ZM130.385 20.265H125.009C122.502 20.265 120.692 21.255 119.605 23.25L115.914 30.015C114.828 32.01 115.538 33.015 118.045 33.015H123.477C125.984 33.015 127.795 32.01 128.867 30.015L132.53 23.25C133.602 21.255 132.892 20.265 130.371 20.265H130.385ZM137.474 26.28L139.633 22.275H144.452C145.134 22.275 145.329 22.545 145.037 23.085L143.755 25.455C143.463 25.995 142.975 26.265 142.293 26.265H137.46L137.474 26.28ZM145.636 20.265H137.878L130.998 33H133.853L136.374 28.32H139.786L140.26 33H142.683L143.296 32.52L142.822 28.17C144.563 27.84 145.845 26.895 146.68 25.335L147.794 23.25C148.867 21.255 148.143 20.265 145.622 20.265M164.452 20.265H151.471L150.385 22.29H155.441L149.702 33.015H152.558L158.282 22.29H163.365L164.438 20.265H164.452Z" fill="#232323"/>
</g>
<defs>
<clipPath id="clip0_108_1522">
<rect width="175.5" height="25.5" fill="white" transform="translate(1.5 7.5)"/>
</clipPath>
</defs>
</svg>
