<svg width="32" height="32" viewBox="0 0 32 32" fill="none" xmlns="http://www.w3.org/2000/svg">
<rect width="32" height="32" fill="#212121"/>
<path d="M10.1782 13.7965H7.9769L8.93839 15.4543C8.83718 15.5589 8.68207 15.6161 8.39274 15.6161H3.12101L2 17.5479H8.75798C9.43344 17.5479 10.0209 17.3718 10.3883 17.0836L10.3905 17.0803C10.4675 17.0198 10.5347 16.9527 10.5897 16.8823L11.4642 16.0121L10.1782 13.7954M12.0121 10H5.25963C4.58196 10 3.9912 10.1749 3.62266 10.4642L3.62046 10.4664C3.54345 10.527 3.47635 10.5941 3.42134 10.6645L2.54675 11.5347L3.85919 13.7954H6.06051L5.07261 12.0924C5.11001 12.0539 5.15402 12.022 5.21012 11.9978H10.8526L12.0121 10ZM18.3751 10H12.7899L11.6304 11.9978H18.5171L17.5842 13.6062C17.5083 13.7371 17.3256 13.7954 17.0121 13.7954H13.1727L10.9956 17.5479H13.4785L14.5347 15.7283H17.3707C18.2684 15.7283 19.0132 15.4224 19.2893 14.9472L21 11.9989L20.2937 10.7822C20.0176 10.3058 19.2717 10.0011 18.3751 10.0011M29.066 10H24.4026C23.5049 10 22.7602 10.3058 22.484 10.7811L19.6799 15.6161L20.3476 16.7668C20.6227 17.242 21.3652 17.5468 22.2607 17.5479H26.9296L29.1067 13.7954H26.8647L25.8086 15.6161H22.1639L24.1914 12.121C24.2222 12.0682 24.2706 12.0286 24.3366 11.9978H27.9076L29.066 10Z" fill="#70BAB5"/>
<path d="M8.89109 18.5853H7.55006C6.93069 18.5853 6.48625 18.8119 6.21452 19.2651L6.07591 19.4962C5.85259 19.8691 5.94279 20.0891 6.34654 20.1573L7.41144 20.3256C7.53025 20.3454 7.55666 20.4103 7.49175 20.5193L7.30033 20.8394C7.22662 20.9637 7.10561 21.0253 6.93729 21.0253H5.16172L5 21.2959L5.22332 21.4907H6.68867C7.30803 21.4896 7.75248 21.2618 8.0231 20.8064L8.18812 20.5281C8.40814 20.1573 8.31683 19.9384 7.91309 19.8713L6.84819 19.703C6.72937 19.6832 6.70297 19.6194 6.76788 19.5094L6.93399 19.2321C7.0077 19.1089 7.12871 19.0473 7.29703 19.0473H8.9538L9.11331 18.7789L8.88999 18.5853M27.1397 18.5853H25.7987C25.1793 18.5853 24.7349 18.8119 24.4631 19.2651L24.3245 19.4962C24.1012 19.8691 24.1914 20.0891 24.5952 20.1573L25.6601 20.3256C25.7789 20.3454 25.8053 20.4103 25.7404 20.5193L25.549 20.8394C25.4752 20.9637 25.3542 21.0253 25.1859 21.0253H23.4103L23.2486 21.2959L23.4719 21.4907H24.9373C25.5567 21.4896 26.0011 21.2618 26.2717 20.8064L26.4367 20.5281C26.6568 20.1573 26.5655 19.9384 26.1617 19.8713L25.0968 19.703C24.978 19.6832 24.9516 19.6194 25.0165 19.5094L25.1826 19.2321C25.2563 19.1089 25.3773 19.0473 25.5457 19.0473H27.2024L27.3619 18.7789L27.1386 18.5853M9.9813 20.0429L10.5721 19.0462H11.7591C11.9274 19.0462 11.9747 19.1078 11.9021 19.231L11.5325 19.857C11.4587 19.9802 11.3388 20.0418 11.1705 20.0418H9.9813M12.0539 18.5853H10.1452L8.42134 21.4907H9.12321L9.70627 20.5072H10.9186C11.5391 20.5072 11.9835 20.2794 12.2508 19.8251L12.5809 19.2662C12.8482 18.813 12.6733 18.5864 12.0539 18.5864M13.2442 21.0253C13.0759 21.0253 13.0275 20.9637 13.1001 20.8394L14.0451 19.231C14.1177 19.1078 14.2376 19.0462 14.4059 19.0462H15.6843C15.8526 19.0462 15.901 19.1078 15.8284 19.231L14.8867 20.8394C14.8141 20.9637 14.6942 21.0253 14.5248 21.0253H13.2431M15.978 18.5853H14.6546C14.0352 18.5853 13.593 18.8119 13.3256 19.2651L12.4191 20.8064C12.1518 21.2607 12.3267 21.4896 12.9439 21.4907H14.2805C14.8999 21.4896 15.3421 21.2618 15.6073 20.8064L16.5072 19.2651C16.7723 18.8119 16.5952 18.5853 15.9769 18.5853M17.7228 19.9582L18.2541 19.0462H19.4411C19.6095 19.0462 19.6579 19.1078 19.5864 19.231L19.2717 19.7734C19.2002 19.8966 19.0803 19.9582 18.912 19.9582H17.7239M19.7316 18.5853H17.8229L16.1287 21.4907H16.8306L17.4521 20.4224H18.2904L18.407 21.4907H19.0055L19.1551 21.3806L19.0396 20.3894C19.4664 20.3135 19.7833 20.0968 19.9901 19.7415L20.2651 19.2662C20.5281 18.813 20.3498 18.5864 19.7305 18.5864M24.3608 18.5853H21.1694L20.9021 19.0473H22.1463L20.7371 21.4907H21.4389L22.846 19.0473H24.0957L24.3608 18.5853Z" fill="#F6F7F9"/>
</svg>
